<mxfile host="app.diagrams.net" modified="2024-01-25T07:10:35.766Z" agent="Mozilla/5.0 (Windows NT 10.0; Win64; x64) AppleWebKit/537.36 (KHTML, like Gecko) Chrome/120.0.0.0 Safari/537.36 Edg/120.0.0.0" etag="mqNRQnlAywhCWCaaQp9n" version="23.0.1" type="github" pages="2">
  <diagram name="BlockDiagram-all" id="97916047-d0de-89f5-080d-49f4d83e522f">
    <mxGraphModel dx="1426" dy="871" grid="1" gridSize="10" guides="1" tooltips="1" connect="1" arrows="1" fold="1" page="1" pageScale="1.5" pageWidth="1169" pageHeight="827" background="none" math="0" shadow="0">
      <root>
        <mxCell id="0" />
        <mxCell id="1" parent="0" />
        <mxCell id="3" value="EABS CPU Module Software" style="rounded=0;shadow=1;fontStyle=1;fontSize=14;align=left;verticalAlign=top;" parent="1" vertex="1">
          <mxGeometry x="161" y="122" width="460" height="320" as="geometry" />
        </mxCell>
        <mxCell id="2xnklOY3mkxwDWEgLXTY-56" value="H/W" style="rounded=0;shadow=1;fontStyle=1;fontSize=28;align=center;verticalAlign=middle;spacing=2;" parent="1" vertex="1">
          <mxGeometry x="161" y="442" width="460" height="70" as="geometry" />
        </mxCell>
        <mxCell id="2xnklOY3mkxwDWEgLXTY-57" value="SafeRTOS" style="rounded=0;shadow=1;fontStyle=1;fontSize=24;align=center;verticalAlign=middle;" parent="1" vertex="1">
          <mxGeometry x="171" y="322" width="250" height="110" as="geometry" />
        </mxCell>
        <mxCell id="2xnklOY3mkxwDWEgLXTY-58" value="Device Driver" style="rounded=0;shadow=1;fontStyle=1;fontSize=24;align=center;verticalAlign=middle;" parent="1" vertex="1">
          <mxGeometry x="431" y="322" width="180" height="110" as="geometry" />
        </mxCell>
        <mxCell id="2xnklOY3mkxwDWEgLXTY-59" value="EABS CPU Module Application" style="rounded=0;shadow=1;fontStyle=1;fontSize=14;align=center;verticalAlign=middle;" parent="1" vertex="1">
          <mxGeometry x="171" y="152" width="440" height="160" as="geometry" />
        </mxCell>
        <mxCell id="2xnklOY3mkxwDWEgLXTY-60" value="EABS I/O Module Software" style="rounded=0;shadow=1;fontStyle=1;fontSize=14;align=left;verticalAlign=top;" parent="1" vertex="1">
          <mxGeometry x="633" y="122" width="460" height="320" as="geometry" />
        </mxCell>
        <mxCell id="2xnklOY3mkxwDWEgLXTY-61" value="H/W" style="rounded=0;shadow=1;fontStyle=1;fontSize=28;align=center;verticalAlign=middle;spacing=2;fillColor=#f5f5f5;fontColor=#333333;strokeColor=#666666;" parent="1" vertex="1">
          <mxGeometry x="633" y="442" width="460" height="70" as="geometry" />
        </mxCell>
        <mxCell id="2xnklOY3mkxwDWEgLXTY-63" value="Device Driver" style="rounded=0;shadow=1;fontStyle=1;fontSize=24;align=center;verticalAlign=middle;" parent="1" vertex="1">
          <mxGeometry x="641" y="362" width="442" height="70" as="geometry" />
        </mxCell>
        <mxCell id="2xnklOY3mkxwDWEgLXTY-64" value="EABS I/O Module Application" style="rounded=0;shadow=1;fontStyle=1;fontSize=14;align=center;verticalAlign=middle;" parent="1" vertex="1">
          <mxGeometry x="643" y="152" width="440" height="200" as="geometry" />
        </mxCell>
        <mxCell id="Bs_QZ7SmaoqHRqGBBxqq-3" value="EABS CPU Module Software" style="rounded=0;shadow=1;fontStyle=1;fontSize=14;align=left;verticalAlign=top;" parent="1" vertex="1">
          <mxGeometry x="162" y="536" width="460" height="320" as="geometry" />
        </mxCell>
        <mxCell id="Bs_QZ7SmaoqHRqGBBxqq-4" value="H/W" style="rounded=0;shadow=1;fontStyle=1;fontSize=28;align=center;verticalAlign=middle;spacing=2;" parent="1" vertex="1">
          <mxGeometry x="162" y="856" width="460" height="70" as="geometry" />
        </mxCell>
        <mxCell id="Bs_QZ7SmaoqHRqGBBxqq-5" value="SafeRTOS" style="rounded=0;shadow=1;fontStyle=1;fontSize=24;align=center;verticalAlign=middle;" parent="1" vertex="1">
          <mxGeometry x="172" y="736" width="169" height="110" as="geometry" />
        </mxCell>
        <mxCell id="Bs_QZ7SmaoqHRqGBBxqq-6" value="Device Driver" style="rounded=0;shadow=1;fontStyle=1;fontSize=24;align=center;verticalAlign=middle;whiteSpace=wrap;" parent="1" vertex="1">
          <mxGeometry x="471" y="736" width="141" height="110" as="geometry" />
        </mxCell>
        <mxCell id="Bs_QZ7SmaoqHRqGBBxqq-7" value="EABS CPU Module Application" style="rounded=0;shadow=1;fontStyle=1;fontSize=14;align=center;verticalAlign=middle;" parent="1" vertex="1">
          <mxGeometry x="172" y="566" width="440" height="160" as="geometry" />
        </mxCell>
        <mxCell id="Bs_QZ7SmaoqHRqGBBxqq-8" value="EABS I/O Module Software" style="rounded=0;shadow=1;fontStyle=1;fontSize=14;align=left;verticalAlign=top;" parent="1" vertex="1">
          <mxGeometry x="634" y="536" width="460" height="320" as="geometry" />
        </mxCell>
        <mxCell id="Bs_QZ7SmaoqHRqGBBxqq-9" value="H/W" style="rounded=0;shadow=1;fontStyle=1;fontSize=28;align=center;verticalAlign=middle;spacing=2;fillColor=#f5f5f5;fontColor=#333333;strokeColor=#666666;" parent="1" vertex="1">
          <mxGeometry x="634" y="856" width="460" height="70" as="geometry" />
        </mxCell>
        <mxCell id="Bs_QZ7SmaoqHRqGBBxqq-10" value="Device Driver" style="rounded=0;shadow=1;fontStyle=1;fontSize=24;align=center;verticalAlign=middle;" parent="1" vertex="1">
          <mxGeometry x="642" y="776" width="442" height="70" as="geometry" />
        </mxCell>
        <mxCell id="Bs_QZ7SmaoqHRqGBBxqq-11" value="EABS I/O Module Application" style="rounded=0;shadow=1;fontStyle=1;fontSize=14;align=center;verticalAlign=middle;" parent="1" vertex="1">
          <mxGeometry x="644" y="566" width="440" height="200" as="geometry" />
        </mxCell>
        <mxCell id="Bs_QZ7SmaoqHRqGBBxqq-12" value="Self-Test Library" style="rounded=0;shadow=1;fontStyle=1;fontSize=24;align=center;verticalAlign=middle;whiteSpace=wrap;" parent="1" vertex="1">
          <mxGeometry x="351" y="736" width="110" height="110" as="geometry" />
        </mxCell>
      </root>
    </mxGraphModel>
  </diagram>
  <diagram id="455bVY7fYw622vmdx8sA" name="IO-Module-Block-Diagram">
    <mxGraphModel dx="347" dy="718" grid="1" gridSize="10" guides="1" tooltips="1" connect="1" arrows="1" fold="1" page="1" pageScale="1" pageWidth="827" pageHeight="1169" math="0" shadow="0">
      <root>
        <mxCell id="0" />
        <mxCell id="1" parent="0" />
        <mxCell id="_B_MI62m7lRFY5nyLYBk-1" value="EABS I/O Module Software" style="rounded=0;shadow=1;fontStyle=1;fontSize=14;align=left;verticalAlign=top;" parent="1" vertex="1">
          <mxGeometry x="999" y="119" width="460" height="320" as="geometry" />
        </mxCell>
        <mxCell id="_B_MI62m7lRFY5nyLYBk-2" value="H/W" style="rounded=0;shadow=1;fontStyle=1;fontSize=28;align=center;verticalAlign=middle;spacing=2;fillColor=#f5f5f5;fontColor=#333333;strokeColor=#666666;" parent="1" vertex="1">
          <mxGeometry x="999" y="439" width="460" height="70" as="geometry" />
        </mxCell>
        <mxCell id="_B_MI62m7lRFY5nyLYBk-3" value="Device Driver" style="rounded=0;shadow=1;fontStyle=1;fontSize=24;align=center;verticalAlign=middle;" parent="1" vertex="1">
          <mxGeometry x="1007" y="359" width="442" height="70" as="geometry" />
        </mxCell>
        <mxCell id="_B_MI62m7lRFY5nyLYBk-4" value="EABS I/O Module Application" style="rounded=0;shadow=1;fontStyle=1;fontSize=14;align=center;verticalAlign=middle;" parent="1" vertex="1">
          <mxGeometry x="1009" y="149" width="440" height="200" as="geometry" />
        </mxCell>
      </root>
    </mxGraphModel>
  </diagram>
</mxfile>
